REM DIRINDEX 1\2,1\3
REM DIRNAME cjc052,folder01,folder02
TITLE ""
FILE "Disk2Track50.mp3" MP3
  TRACK 01 AUDIO
    TITLE "2:cjc052_0892"
    INDEX 01 00:00:00
  TRACK 02 AUDIO
    TITLE "2:cjc052_0893"
    INDEX 01 00:09:57
  TRACK 03 AUDIO
    TITLE "2:cjc052_0894"
    INDEX 01 00:18:56
  TRACK 04 AUDIO
    TITLE "2:cjc052_0895"
    INDEX 01 00:29:05
  TRACK 05 AUDIO
    TITLE "0:"
    INDEX 01 00:41:10
